<svg xmlns="http://www.w3.org/2000/svg" viewBox="0 0 119.57 32.42"><defs><style>.cls-1{fill:#231f20;}</style></defs><g id="Layer_2" data-name="Layer 2"><g id="Layer_1-2" data-name="Layer 1"><path class="cls-1" d="M10,16.75a26.18,26.18,0,0,1-2.66.76V32.33H1.49V7L0,5.76,6.62.45h.76V16.88a18.85,18.85,0,0,0,2.26-.63l-.82-1,5.14-.9c3.37-2,6.62-4.73,6.62-8.29A7.4,7.4,0,0,0,17.69.45h5.9c0,5.72-3.42,11-9.18,14.36l14.4,17.52h-6.7Z"/><path class="cls-1" d="M52.18,21.21c0,5.94-5.63,11.21-13.28,11.21S25.66,27.15,25.66,21.21,31.29,10,38.9,10,52.18,15.31,52.18,21.21Zm-3,4.23c0-5.54-8.2-12.92-15.31-12.92-3.38,0-5.27,1.84-5.27,4.45,0,5.59,8.2,12.92,15.31,12.92C47.32,29.89,49.21,28.05,49.21,25.44Z"/><path class="cls-1" d="M63.09,30a14,14,0,0,0,5-1v3.43c-7.29,0-13.23-4.78-13.23-10.63V6.48L53.37,5.31,60,0h.76V19.67c-1.57,1.72-2.92,3.92-2.92,6.13C57.83,28.41,59.85,30,63.09,30Z"/><path class="cls-1" d="M92,27.06l.86,1.12c-3.29,2.48-5.81,4.24-10.67,4.24-7.61,0-13.24-5.27-13.24-11.21S74.54,10,82.15,10s13.28,5.32,13.28,11.22H73.37c2.29,3.87,8.28,8.64,14,8.64,2,0,4.32-.81,4.41-2.66ZM72,16.84a8.48,8.48,0,0,0,1,3.74H90.57c-2.44-3.61-8.11-8-13.6-8C73.77,12.61,72,14.32,72,16.84Z"/><path class="cls-1" d="M119.57,10.62v7.07c0,7.43-7.07,13.83-16.34,14.64L96.7,27.1l1.49-1.17V10.62h5.89v21c5.54-.9,9.6-4.64,9.6-9.18V10.62Z"/></g></g></svg>