<svg xmlns="http://www.w3.org/2000/svg" viewBox="0 0 170.78 45.65"><defs><style>.cls-1{fill:#231f20;}</style></defs><g id="Layer_2" data-name="Layer 2"><g id="Layer_1-2" data-name="Layer 1"><path class="cls-1" d="M36,16.52V32.46h-.72l-3.46-2.79a23.16,23.16,0,0,1-12,3.33C8.51,33,0,25.35,0,16.52S8.6,0,19.9,0A21.37,21.37,0,0,1,36,6.84l-4.09,3.43A24.5,24.5,0,0,0,14.77,2.61c-7.16,0-11.66,4.1-11.66,9.68C3.11,21,13.87,30.44,25,30.44a14,14,0,0,0,6.17-1.27l-2.53-2L30.08,26V17.11h-5.9L19,21.25h-.76V16.52Z"/><path class="cls-1" d="M61.42,27.69l.86,1.12c-3.29,2.48-5.81,4.24-10.67,4.24-7.61,0-13.24-5.27-13.24-11.21S44,10.63,51.61,10.63s13.28,5.31,13.28,11.21H42.83c2.29,3.87,8.28,8.64,14,8.64,2,0,4.32-.81,4.41-2.66Zm-20-10.22a8.44,8.44,0,0,0,1,3.74H60c-2.43-3.61-8.11-8-13.6-8C43.23,13.24,41.43,15,41.43,17.47Z"/><path class="cls-1" d="M93.54,21.84c0,5.94-5.63,11.21-13.28,11.21S67,27.78,67,21.84s5.63-11.21,13.24-11.21S93.54,15.94,93.54,21.84Zm-3,4.23c0-5.54-8.2-12.92-15.31-12.92C71.88,13.15,70,15,70,17.6c0,5.59,8.19,12.93,15.31,12.93C88.67,30.53,90.57,28.68,90.57,26.07Z"/><path class="cls-1" d="M109.21,10.76a21.89,21.89,0,0,1,4.32.5v4.27c-2.07-1.12-5.49-2.47-8.06-2.47-3.33,0-5.31,1.66-5.31,4.32a10.66,10.66,0,0,0,3,6.62v9h-.76l-6.28-6.17,1.14-.9V11.26h5.9v1.17A10.77,10.77,0,0,1,109.21,10.76Z"/><path class="cls-1" d="M133.09,31.92c3.06,1.13,6.35,4.46,6.35,7.25,0,4.91-7.7,6.48-12.61,6.48-5.71,0-13.82-2.43-13.82-7.88,0-2,1.44-3.64,3.47-4.72l5.13,2.74c-2.11,1.13-5.09,3.25-5.09,5.45s3.07,2.84,5.27,2.84c4.91,0,13.78-3.2,13.78-7.79,0-1.89-.86-3.24-3.06-4.1a15.08,15.08,0,0,1-5.14.86c-7.6,0-13.23-5.27-13.23-11.21s5.58-11.17,13.19-11.17a15.7,15.7,0,0,1,4.19.59H141.6v4.68l-5.17-4.1h-3.2c4.5,1.85,7.43,5.72,7.43,10S137.87,30,133.09,31.92Zm4.6-5.85c0-5.54-8.15-12.92-15.27-12.92-3.37,0-5.31,1.89-5.31,4.45,0,5.59,8.19,12.93,15.31,12.93C135.79,30.53,137.69,28.68,137.69,26.07Z"/><path class="cls-1" d="M167.32,27.69l.85,1.12c-3.29,2.48-5.81,4.24-10.67,4.24-7.61,0-13.24-5.27-13.24-11.21s5.63-11.21,13.24-11.21,13.28,5.31,13.28,11.21H148.72c2.3,3.87,8.28,8.64,14,8.64,2,0,4.33-.81,4.42-2.66Zm-20-10.22a8.57,8.57,0,0,0,1,3.74h17.56c-2.43-3.61-8.1-8-13.6-8C149.13,13.24,147.32,15,147.32,17.47Z"/></g></g></svg>