<svg xmlns="http://www.w3.org/2000/svg" viewBox="0 0 648.61 171.84"><g id="Layer_2" data-name="Layer 2"><g id="Layer_1-2" data-name="Layer 1"><path d="M135.4,62.19v60h-2.71l-13-10.5A87.27,87.27,0,0,1,74.4,124.22C32,124.22,0,95.41,0,62.19,0,28.81,32.37,0,74.9,0c24.24,0,46.61,9.83,60.5,25.76L120,38.64C105.24,22.88,80.83,9.83,55.58,9.83c-26.94,0-43.89,15.42-43.89,36.43,0,32.88,40.51,68.3,82.36,68.3,8.14,0,16.27-1.36,23.22-4.75l-9.49-7.62,5.42-4.41V64.4H91L71.68,80H68.8V62.19Z"/><path d="M231.26,104.22l3.22,4.24c-12.37,9.32-21.86,15.93-40.16,15.93-28.64,0-49.83-19.83-49.83-42.2,0-22.2,21.19-42.2,49.83-42.2,28.8,0,50,20,50,42.2h-83c8.64,14.57,31.18,32.54,52.7,32.54,7.46,0,16.27-3,16.61-10ZM156,65.75c0,4.92,1.69,9.66,3.89,14.07H226c-9.16-13.56-30.51-30-51.18-30C162.8,49.82,156,56.26,156,65.75Z"/><path d="M356.2,82.19c0,22.37-21.18,42.2-50,42.2-28.64,0-49.83-19.83-49.83-42.2,0-22.2,21.19-42.2,49.83-42.2C335,40,356.2,60,356.2,82.19ZM345,98.12c0-20.84-30.84-48.64-57.61-48.64-12.71,0-19.83,7-19.83,16.78,0,21,30.84,48.64,57.62,48.64C337.9,114.9,345,108,345,98.12Z"/><path d="M415.73,40.5A83.76,83.76,0,0,1,432,42.37V58.46c-7.79-4.23-20.67-9.32-30.33-9.32-12.54,0-20,6.28-20,16.27,0,8.65,4.92,18,11.19,24.91v31.86H390l-24.91-20,5.59-4.41V42.37h22.2v4.4C399.29,42.54,406.91,40.5,415.73,40.5Z"/><path d="M509.21,120.15c11.53,4.24,23.9,16.78,23.9,27.28,0,18.48-29,24.41-47.45,24.41-21.52,0-52-9.15-52-29.66,0-7.46,5.43-13.73,13.05-17.79L466,134.72c-8,4.24-19.15,12.21-19.15,20.51s11.53,10.68,19.83,10.68c18.47,0,51.86-12,51.86-29.32,0-7.12-3.23-12.2-11.53-15.42a57.16,57.16,0,0,1-19.32,3.22c-28.64,0-49.82-19.83-49.82-42.2,0-22.2,21-42,49.65-42a58.76,58.76,0,0,1,15.76,2.21h38V60L521.75,44.57h-12c16.95,7,28,21.52,28,37.62S527.18,113,509.21,120.15Zm17.29-22c0-20.84-30.67-48.64-57.45-48.64-12.71,0-20,7.12-20,16.78,0,21,30.85,48.64,57.62,48.64C519.38,114.9,526.5,108,526.5,98.12Z"/><path d="M635.56,104.22l3.22,4.24c-12.37,9.32-21.86,15.93-40.16,15.93-28.64,0-49.83-19.83-49.83-42.2C548.79,60,570,40,598.62,40c28.8,0,50,20,50,42.2h-83c8.64,14.57,31.18,32.54,52.7,32.54,7.46,0,16.27-3,16.61-10ZM560.32,65.75c0,4.92,1.69,9.66,3.89,14.07h66.1c-9.16-13.56-30.51-30-51.18-30C567.1,49.82,560.32,56.26,560.32,65.75Z"/></g></g></svg>