<svg xmlns="http://www.w3.org/2000/svg" viewBox="0 0 686.92 300.49"><g id="Layer_2" data-name="Layer 2"><g id="Layer_1-2" data-name="Layer 1"><path d="M145.09,66.41v64.06H142.2l-13.94-11.22A93.07,93.07,0,0,1,80,132.64C34.71,132.64.51,101.88.51,66.41.51,30.76,35.07,0,80.49,0c25.88,0,49.76,10.5,64.6,27.51L128.62,41.26C112.88,24.43,86.82,10.5,59.86,10.5,31.09,10.5,13,27,13,49.4c0,35.11,43.25,72.93,88,72.93,8.68,0,17.37-1.45,24.79-5.07l-10.13-8.14,5.79-4.71V68.76H97.68L77.05,85.41H74v-19Z"/><path d="M247.38,111.29l3.44,4.52c-13.21,10-23.35,17-42.89,17-30.58,0-53.2-21.17-53.2-45,0-23.71,22.62-45.06,53.2-45.06,30.76,0,53.38,21.35,53.38,45.06H172.64c9.23,15.56,33.3,34.74,56.28,34.74,8,0,17.37-3.26,17.73-10.68ZM167,70.21c0,5.25,1.81,10.32,4.16,15h70.58c-9.77-14.48-32.57-32-54.65-32C174.27,53.2,167,60.08,167,70.21Z"/><path d="M376.45,87.77c0,23.88-22.62,45.05-53.38,45.05-30.58,0-53.2-21.17-53.2-45,0-23.71,22.62-45.06,53.2-45.06C353.83,42.71,376.45,64.06,376.45,87.77Zm-11.94,17c0-22.26-32.94-51.94-61.53-51.94-13.57,0-21.17,7.42-21.17,17.91,0,22.45,32.93,51.94,61.53,51.94C356.91,122.69,364.51,115.27,364.51,104.78Z"/><path d="M439.44,43.25a89.44,89.44,0,0,1,17.37,2V62.43c-8.32-4.52-22.07-10-32.39-10-13.39,0-21.35,6.69-21.35,17.37,0,9.23,5.25,19.18,11.94,26.6v36.37h-3.07L386.71,108l4.6-3.62V45.24H415v4.7C421.89,45.42,430,43.25,439.44,43.25Z"/><path d="M535.43,128.3c12.31,4.52,25.52,17.91,25.52,29.13,0,19.73-31,26.06-50.67,26.06-23,0-55.55-9.77-55.55-31.67,0-8,5.79-14.65,13.93-19l20.63,11c-8.5,4.53-20.45,13-20.45,21.9s12.31,11.4,21.17,11.4c19.73,0,55.38-12.85,55.38-31.31,0-7.6-3.44-13-12.31-16.46a61,61,0,0,1-20.63,3.43c-30.58,0-53.2-21.17-53.2-45,0-23.71,22.44-44.88,53-44.88a62.94,62.94,0,0,1,16.83,2.35h40.54V64.06L548.83,47.59H536c18.09,7.42,29.85,23,29.85,40.18S554.62,120.7,535.43,128.3Zm18.46-23.52c0-22.26-32.75-51.94-61.34-51.94-13.58,0-21.35,7.6-21.35,17.91,0,22.45,32.93,51.94,61.52,51.94C546.29,122.69,553.89,115.27,553.89,104.78Z"/><path d="M673,111.29l3.44,4.52c-13.21,10-23.35,17-42.89,17-30.58,0-53.2-21.17-53.2-45,0-23.71,22.62-45.06,53.2-45.06,30.76,0,53.39,21.35,53.39,45.06H598.24c9.23,15.56,33.3,34.74,56.28,34.74,8,0,17.38-3.26,17.74-10.68ZM592.63,70.21c0,5.25,1.82,10.32,4.17,15h70.57c-9.77-14.48-32.57-32-54.65-32C599.88,53.2,592.63,60.08,592.63,70.21Z"/><path d="M40.35,237.52a103.91,103.91,0,0,1-10.67,3.07v59.54H6V198.25l-6-4.89L26.6,172h3.08v66.05a75.07,75.07,0,0,0,9-2.53l-3.26-4.16,20.63-3.63c13.57-8,26.6-19,26.6-33.29,0-8.32-4.35-16.47-11.58-22.44h23.7c-.18,23-13.75,44.34-36.91,57.72l57.9,70.4h-27Z"/><path d="M209.72,255.43c0,23.89-22.62,45.06-53.38,45.06-30.58,0-53.2-21.17-53.2-45.06,0-23.7,22.62-45.06,53.2-45.06C187.1,210.37,209.72,231.73,209.72,255.43Zm-11.94,17c0-22.26-32.94-51.93-61.53-51.93-13.57,0-21.17,7.41-21.17,17.91,0,22.44,32.93,51.93,61.53,51.93C190.18,290.35,197.78,282.94,197.78,272.44Z"/><path d="M253.59,290.9a56.9,56.9,0,0,0,20.09-4.16v13.75c-29.32,0-53.2-19.18-53.2-42.71V196.26l-6-4.71,26.6-21.35h3.07v79.08c-6.33,6.88-11.76,15.74-11.76,24.61C232.42,284.38,240.56,290.9,253.59,290.9Z"/><path d="M369.61,279l3.44,4.53c-13.21,9.95-23.35,17-42.89,17-30.58,0-53.2-21.17-53.2-45.06,0-23.7,22.62-45.06,53.2-45.06,30.76,0,53.38,21.36,53.38,45.06H294.88c9.22,15.56,33.29,34.74,56.27,34.74,8,0,17.37-3.25,17.74-10.67Zm-80.35-41.07c0,5.25,1.81,10.31,4.17,15H364c-9.77-14.48-32.57-32-54.65-32C296.5,220.87,289.26,227.74,289.26,237.88Z"/><path d="M480.59,212.9v28.42c0,29.85-28.41,55.55-65.69,58.81l-26.24-21,6-4.71V212.9h23.71v84.51c22.26-3.62,38.55-18.64,38.55-36.91V212.9Z"/></g></g></svg>