<svg xmlns="http://www.w3.org/2000/svg" viewBox="0 0 462.44 122.18"><g id="Layer_2" data-name="Layer 2"><g id="Layer_1-2" data-name="Layer 1"><path d="M37.79,61.35a99.19,99.19,0,0,1-10,2.88V120H5.59V24.57L0,20,24.91,0h2.88V61.85a68,68,0,0,0,8.48-2.37l-3.05-3.9,19.31-3.39C65.24,44.74,77.45,34.4,77.45,21c0-7.79-4.07-15.42-10.85-21H88.8c-.17,21.52-12.88,41.52-34.57,54.06L108.46,120H83.21Z"/><path d="M204.59,80c0,22.37-21.19,42.19-50,42.19-28.63,0-49.82-19.82-49.82-42.19,0-22.2,21.19-42.2,49.82-42.2C183.4,37.79,204.59,57.79,204.59,80ZM193.4,95.92c0-20.85-30.84-48.64-57.62-48.64-12.71,0-19.82,6.95-19.82,16.78,0,21,30.84,48.63,57.61,48.63C186.28,112.69,193.4,105.75,193.4,95.92Z"/><path d="M249.27,113.2a53.07,53.07,0,0,0,18.81-3.9v12.88c-27.46,0-49.83-18-49.83-40V24.57l-5.59-4.4,24.91-20h2.88V74.23c-5.93,6.44-11,14.74-11,23C229.44,107.1,237.07,113.2,249.27,113.2Z"/><path d="M356.45,102l3.22,4.23c-12.37,9.32-21.86,15.93-40.16,15.93-28.64,0-49.83-19.82-49.83-42.19,0-22.2,21.19-42.2,49.83-42.2,28.81,0,50,20,50,42.2h-83c8.64,14.57,31.18,32.53,52.7,32.53,7.46,0,16.27-3,16.61-10ZM281.21,63.55c0,4.91,1.69,9.66,3.9,14.06H351.2c-9.16-13.55-30.51-30-51.18-30C288,47.62,281.21,54.06,281.21,63.55Z"/><path d="M462.44,40.16V66.77c0,28-26.6,52-61.51,55.07l-24.57-19.65L382,97.78V40.16h22.2V119.3c20.84-3.39,36.09-17.45,36.09-34.57V40.16Z"/></g></g></svg>